<?xml version="1.0" encoding="UTF-8"?>
<svg id="b" data-name="Layer 2" xmlns="http://www.w3.org/2000/svg" viewBox="0 0 265.45 68.8">
  <defs>
    <style>
      .d, .e {
        fill: #080504;
      }

      .e {
        fill-rule: evenodd;
      }
    </style>
  </defs>
  <g id="c" data-name="Layer 1">
    <path class="e" d="M9.24,9.88H.14C.14,4.49,4.22.11,9.24.11h9.1c5.02,0,9.1,4.38,9.1,9.77h-9.1v19.54c-5.02,0-9.1-4.38-9.1-9.77v-9.77Z"/>
    <path class="e" d="M52.38,9.88h-9.1C43.28,4.49,47.35.11,52.38.11h9.1c5.02,0,9.1,4.38,9.1,9.77h-9.1v19.54c-5.02,0-9.1-4.38-9.1-9.77v-9.77Z"/>
    <path class="e" d="M30.77,9.88V.11c5.02,0,9.1,4.38,9.1,9.77v19.54c-5.02,0-9.1-4.38-9.1-9.77v-9.77Z"/>
    <ellipse class="d" cx="87.63" cy="14.77" rx="13.75" ry="14.77"/>
    <path class="e" d="M0,49.25v-9.77c5.03,0,9.1,4.38,9.1,9.77v-9.77c5.02,0,9.1,4.38,9.1,9.77,0-5.4,4.07-9.77,9.1-9.77v19.54c0,5.4-4.07,9.77-9.1,9.77h-9.1c-5.03,0-9.1-4.38-9.1-9.77v-9.77Z"/>
    <path class="e" d="M30.7,59.03v-19.54h27.29c0,5.4-4.07,9.77-9.1,9.77h9.1c0,5.4-4.07,9.77-9.1,9.77h9.1v9.77h-18.2c-5.02,0-9.1-4.38-9.1-9.77Z"/>
    <path class="e" d="M61.41,49.25v19.54h27.29c0-5.4-4.07-9.77-9.1-9.77h9.1c0-5.4-4.07-9.77-9.1-9.77h9.1v-9.77h-18.2c-5.02,0-9.1,4.38-9.1,9.77Z"/>
    <path class="e" d="M92.11,68.8v-29.32h9.1v7.27c.41-1.65,1.22-3.18,2.36-4.41,1.71-1.83,4.02-2.86,6.43-2.86h9.4v.33c0,2.59-.96,5.08-2.66,6.91-1.71,1.83-4.02,2.86-6.43,2.86h-5.79c3.6.71,6.93,2.58,9.56,5.4,3.41,3.67,5.33,8.64,5.33,13.82h-9.1c0-5.4-4.07-9.77-9.1-9.77v9.77h-9.1Z"/>
    <path class="e" d="M146.04,19.54V0h27.29c0,5.4-4.07,9.77-9.1,9.77h9.1c0,5.4-4.07,9.77-9.1,9.77h9.1v9.77h-18.19c-5.02,0-9.1-4.38-9.1-9.77Z"/>
    <path class="e" d="M115.34,29.32V0h18.2c4.88.18,8.79,4.48,8.79,9.77,0,1.67-.39,3.23-1.07,4.6.87,1.5,1.38,3.27,1.38,5.17,0,5.4-4.07,9.77-9.1,9.77h-18.2Z"/>
    <path class="e" d="M176.75,9.77c0-5.4,4.07-9.77,9.1-9.77h9.1c2.41,0,4.73,1.03,6.43,2.86,1.71,1.83,2.67,4.32,2.67,6.91v19.54h-9.1c0-5.4-4.07-9.77-9.1-9.77,0,5.4-4.07,9.77-9.1,9.77V9.77Z"/>
    <path class="e" d="M207.45,9.77c0-5.4,4.07-9.77,9.1-9.77h18.2c0,5.4-4.07,9.77-9.1,9.77h-9.1v9.77h18.2c0,5.4-4.07,9.77-9.1,9.77h-9.1c-5.02,0-9.1-4.38-9.1-9.77v-9.77Z"/>
    <path class="e" d="M238.16,19.54V0h9.1v9.77h9.1c0-5.4,4.07-9.77,9.1-9.77v29.32h-9.1v-9.77h-9.1c0,5.4-4.07,9.77-9.1,9.77v-9.77Z"/>
    <path class="e" d="M154.97,49.15h-9.01c0-5.34,4.03-9.67,9.01-9.67h9c4.97,0,9,4.33,9,9.67s-4.03,9.67-9,9.67h9v9.67h-27.01v-9.67c0-5.34,4.03-9.67,9.01-9.67Z"/>
    <path class="e" d="M175.46,49.25c0-5.4,4.07-9.77,9.1-9.77h18.2c0,5.4-4.07,9.77-9.1,9.77,5.03,0,9.1,4.38,9.1,9.77s-4.07,9.77-9.1,9.77h-9.1c-5.03,0-9.1-4.38-9.1-9.77v-9.77Z"/>
  </g>
</svg>